<svg xmlns="http://www.w3.org/2000/svg" viewBox="0 0 32 32" width="32" height="32">
  <defs>
    <linearGradient id="bg" x1="0%" y1="0%" x2="100%" y2="100%">
      <stop offset="0%" style="stop-color:#8b5cf6"/>
      <stop offset="100%" style="stop-color:#6d28d9"/>
    </linearGradient>
  </defs>
  <rect width="32" height="32" rx="7" ry="7" fill="url(#bg)"/>
  <g transform="translate(16, 15)" fill="none" stroke="white" stroke-width="1.8" stroke-linecap="round" stroke-linejoin="round">
    <path d="M-1,-7 C-4.5,-7 -7.5,-5 -8.2,-2 C-8.9,1 -8,3.5 -7,5 C-6,6.5 -4,7.7 -1,8"/>
    <path d="M1,-7 C4.5,-7 7.5,-5 8.2,-2 C8.9,1 8,3.5 7,5 C6,6.5 4,7.7 1,8"/>
    <path d="M0,-7 L0,8" opacity="0.4" stroke-width="1.4"/>
    <path d="M0,8 L0,10" opacity="0.6"/>
  </g>
  <circle cx="23" cy="7" r="2.2" fill="#c4b5fd" opacity="0.8"/>
  <circle cx="24" cy="6.3" r="1.7" fill="#8b5cf6"/>
</svg>
